<mxfile host="Electron" agent="Mozilla/5.0 (Windows NT 10.0; Win64; x64) AppleWebKit/537.36 (KHTML, like Gecko) draw.io/26.2.2 Chrome/134.0.6998.178 Electron/35.1.2 Safari/537.36" version="26.2.2" pages="2">
  <diagram name="2025.01" id="EyYBBKXp6Arr5E_HvH0r">
    <mxGraphModel dx="2278" dy="1941" grid="1" gridSize="10" guides="1" tooltips="1" connect="1" arrows="1" fold="1" page="1" pageScale="1" pageWidth="850" pageHeight="1100" math="0" shadow="0">
      <root>
        <mxCell id="0" />
        <mxCell id="1" parent="0" />
        <mxCell id="7kvp146TYInn0krQ3v1e-1" value="Model building/analyzing" style="shape=process;whiteSpace=wrap;html=1;backgroundOutline=1;fillColor=#e1d5e7;strokeColor=#9673a6;" parent="1" vertex="1">
          <mxGeometry x="-180" y="120" width="120" height="60" as="geometry" />
        </mxCell>
        <mxCell id="7kvp146TYInn0krQ3v1e-2" value="Model core" style="shape=process;whiteSpace=wrap;html=1;backgroundOutline=1;fillColor=#dae8fc;strokeColor=#6c8ebf;" parent="1" vertex="1">
          <mxGeometry x="-40" y="120" width="120" height="60" as="geometry" />
        </mxCell>
        <mxCell id="7kvp146TYInn0krQ3v1e-12" value="DDB Python" style="rounded=1;whiteSpace=wrap;html=1;" parent="1" vertex="1">
          <mxGeometry x="120" y="370" width="120" height="60" as="geometry" />
        </mxCell>
        <mxCell id="7kvp146TYInn0krQ3v1e-13" value="Beta functionality" style="shape=process;whiteSpace=wrap;html=1;backgroundOutline=1;fillColor=#ffe6cc;strokeColor=#d79b00;" parent="1" vertex="1">
          <mxGeometry x="180" y="20" width="120" height="60" as="geometry" />
        </mxCell>
        <mxCell id="7kvp146TYInn0krQ3v1e-16" value="Quadtree mesh" style="rounded=1;whiteSpace=wrap;html=1;" parent="1" vertex="1">
          <mxGeometry x="260" y="370" width="120" height="60" as="geometry" />
        </mxCell>
        <mxCell id="7kvp146TYInn0krQ3v1e-17" value="BMI (XMI compatible upgrade)" style="rounded=1;whiteSpace=wrap;html=1;" parent="1" vertex="1">
          <mxGeometry x="260" y="450" width="120" height="60" as="geometry" />
        </mxCell>
        <mxCell id="7kvp146TYInn0krQ3v1e-18" value="Green infra storage volume" style="rounded=1;whiteSpace=wrap;html=1;" parent="1" vertex="1">
          <mxGeometry x="260" y="530" width="120" height="60" as="geometry" />
        </mxCell>
        <mxCell id="7kvp146TYInn0krQ3v1e-21" value="Wave makers" style="rounded=1;whiteSpace=wrap;html=1;" parent="1" vertex="1">
          <mxGeometry x="260" y="290" width="120" height="60" as="geometry" />
        </mxCell>
        <mxCell id="7kvp146TYInn0krQ3v1e-22" value="Coupling to SnapWave" style="rounded=1;whiteSpace=wrap;html=1;" parent="1" vertex="1">
          <mxGeometry x="260" y="210" width="120" height="60" as="geometry" />
        </mxCell>
        <mxCell id="7kvp146TYInn0krQ3v1e-23" value="Nonhydrostratic term" style="rounded=1;whiteSpace=wrap;html=1;" parent="1" vertex="1">
          <mxGeometry x="560" y="290" width="120" height="60" as="geometry" />
        </mxCell>
        <mxCell id="rzP5gwLoOl2-9JE9df7u-1" value="Alpha functionality" style="shape=process;whiteSpace=wrap;html=1;backgroundOutline=1;fillColor=#fff2cc;strokeColor=#d6b656;" parent="1" vertex="1">
          <mxGeometry x="480" y="20" width="120" height="60" as="geometry" />
        </mxCell>
        <mxCell id="rzP5gwLoOl2-9JE9df7u-13" value="" style="edgeStyle=orthogonalEdgeStyle;rounded=0;orthogonalLoop=1;jettySize=auto;html=1;entryX=0.5;entryY=0;entryDx=0;entryDy=0;" parent="1" source="rzP5gwLoOl2-9JE9df7u-2" target="7kvp146TYInn0krQ3v1e-1" edge="1">
          <mxGeometry relative="1" as="geometry">
            <Array as="points">
              <mxPoint x="-60" y="100" />
              <mxPoint x="-120" y="100" />
            </Array>
          </mxGeometry>
        </mxCell>
        <mxCell id="rzP5gwLoOl2-9JE9df7u-2" value="New functionality" style="shape=process;whiteSpace=wrap;html=1;backgroundOutline=1;fillColor=#d5e8d4;strokeColor=#82b366;" parent="1" vertex="1">
          <mxGeometry x="-120" y="20" width="120" height="60" as="geometry" />
        </mxCell>
        <mxCell id="rzP5gwLoOl2-9JE9df7u-3" value="Improved HydroMT-SFINCS&lt;br&gt;Subgrid generation" style="rounded=1;whiteSpace=wrap;html=1;fillColor=#f5f5f5;fontColor=#333333;strokeColor=#666666;" parent="1" vertex="1">
          <mxGeometry x="-180" y="210" width="120" height="60" as="geometry" />
        </mxCell>
        <mxCell id="rzP5gwLoOl2-9JE9df7u-7" value="Model building/analyzing" style="shape=process;whiteSpace=wrap;html=1;backgroundOutline=1;fillColor=#e1d5e7;strokeColor=#9673a6;" parent="1" vertex="1">
          <mxGeometry x="120" y="120" width="120" height="60" as="geometry" />
        </mxCell>
        <mxCell id="rzP5gwLoOl2-9JE9df7u-8" value="Model core" style="shape=process;whiteSpace=wrap;html=1;backgroundOutline=1;fillColor=#dae8fc;strokeColor=#6c8ebf;" parent="1" vertex="1">
          <mxGeometry x="260" y="120" width="120" height="60" as="geometry" />
        </mxCell>
        <mxCell id="rzP5gwLoOl2-9JE9df7u-9" value="Model building/analyzing" style="shape=process;whiteSpace=wrap;html=1;backgroundOutline=1;fillColor=#e1d5e7;strokeColor=#9673a6;" parent="1" vertex="1">
          <mxGeometry x="420" y="120" width="120" height="60" as="geometry" />
        </mxCell>
        <mxCell id="rzP5gwLoOl2-9JE9df7u-10" value="Model core" style="shape=process;whiteSpace=wrap;html=1;backgroundOutline=1;fillColor=#dae8fc;strokeColor=#6c8ebf;" parent="1" vertex="1">
          <mxGeometry x="560" y="120" width="120" height="60" as="geometry" />
        </mxCell>
        <mxCell id="rzP5gwLoOl2-9JE9df7u-14" value="" style="edgeStyle=orthogonalEdgeStyle;rounded=0;orthogonalLoop=1;jettySize=auto;html=1;entryX=0.5;entryY=0;entryDx=0;entryDy=0;exitX=0.5;exitY=1;exitDx=0;exitDy=0;" parent="1" source="rzP5gwLoOl2-9JE9df7u-2" target="7kvp146TYInn0krQ3v1e-2" edge="1">
          <mxGeometry relative="1" as="geometry">
            <mxPoint x="-50" y="110" as="sourcePoint" />
            <mxPoint x="-110" y="130" as="targetPoint" />
            <Array as="points">
              <mxPoint x="-60" y="100" />
              <mxPoint x="20" y="100" />
            </Array>
          </mxGeometry>
        </mxCell>
        <mxCell id="rzP5gwLoOl2-9JE9df7u-15" value="" style="edgeStyle=orthogonalEdgeStyle;rounded=0;orthogonalLoop=1;jettySize=auto;html=1;entryX=0.5;entryY=0;entryDx=0;entryDy=0;" parent="1" edge="1">
          <mxGeometry relative="1" as="geometry">
            <mxPoint x="240" y="100" as="sourcePoint" />
            <mxPoint x="180" y="120" as="targetPoint" />
            <Array as="points">
              <mxPoint x="180" y="100" />
            </Array>
          </mxGeometry>
        </mxCell>
        <mxCell id="rzP5gwLoOl2-9JE9df7u-16" value="" style="edgeStyle=orthogonalEdgeStyle;rounded=0;orthogonalLoop=1;jettySize=auto;html=1;entryX=0.5;entryY=0;entryDx=0;entryDy=0;exitX=0.5;exitY=1;exitDx=0;exitDy=0;" parent="1" source="7kvp146TYInn0krQ3v1e-13" edge="1">
          <mxGeometry relative="1" as="geometry">
            <mxPoint x="240" y="100" as="sourcePoint" />
            <mxPoint x="320" y="120" as="targetPoint" />
            <Array as="points">
              <mxPoint x="240" y="100" />
              <mxPoint x="320" y="100" />
            </Array>
          </mxGeometry>
        </mxCell>
        <mxCell id="rzP5gwLoOl2-9JE9df7u-17" value="" style="edgeStyle=orthogonalEdgeStyle;rounded=0;orthogonalLoop=1;jettySize=auto;html=1;entryX=0.5;entryY=0;entryDx=0;entryDy=0;" parent="1" edge="1">
          <mxGeometry relative="1" as="geometry">
            <mxPoint x="540" y="100" as="sourcePoint" />
            <mxPoint x="480" y="120" as="targetPoint" />
            <Array as="points">
              <mxPoint x="480" y="100" />
            </Array>
          </mxGeometry>
        </mxCell>
        <mxCell id="rzP5gwLoOl2-9JE9df7u-18" value="" style="edgeStyle=orthogonalEdgeStyle;rounded=0;orthogonalLoop=1;jettySize=auto;html=1;entryX=0.5;entryY=0;entryDx=0;entryDy=0;exitX=0.5;exitY=1;exitDx=0;exitDy=0;" parent="1" source="rzP5gwLoOl2-9JE9df7u-1" edge="1">
          <mxGeometry relative="1" as="geometry">
            <mxPoint x="540" y="100" as="sourcePoint" />
            <mxPoint x="620" y="120" as="targetPoint" />
            <Array as="points">
              <mxPoint x="540" y="100" />
              <mxPoint x="620" y="100" />
            </Array>
          </mxGeometry>
        </mxCell>
        <mxCell id="rzP5gwLoOl2-9JE9df7u-19" value="Improved numerical stability subgrid mode" style="rounded=1;whiteSpace=wrap;html=1;fillColor=#f5f5f5;fontColor=#333333;strokeColor=#666666;" parent="1" vertex="1">
          <mxGeometry x="-40" y="210" width="120" height="60" as="geometry" />
        </mxCell>
        <mxCell id="rzP5gwLoOl2-9JE9df7u-25" value="Development status SFINCS &amp;amp; HydroMT-SFINCS 2025.01 version" style="shape=process;whiteSpace=wrap;html=1;backgroundOutline=1;fillColor=#76608a;strokeColor=#432D57;rounded=1;shadow=1;fontColor=#ffffff;" parent="1" vertex="1">
          <mxGeometry x="-120" y="-60" width="1020" height="60" as="geometry" />
        </mxCell>
        <mxCell id="h5AYdAlQy4P1A5t7XYnz-3" value="Pre-alpha functionality" style="shape=process;whiteSpace=wrap;html=1;backgroundOutline=1;fillColor=#f9f7ed;strokeColor=#36393d;" parent="1" vertex="1">
          <mxGeometry x="780" y="20" width="120" height="60" as="geometry" />
        </mxCell>
        <mxCell id="h5AYdAlQy4P1A5t7XYnz-4" value="HydroMT-SFINCS&lt;br&gt;Quadtree model" style="rounded=1;whiteSpace=wrap;html=1;" parent="1" vertex="1">
          <mxGeometry x="120" y="210" width="120" height="60" as="geometry" />
        </mxCell>
        <mxCell id="h5AYdAlQy4P1A5t7XYnz-5" value="Model building/analyzing" style="shape=process;whiteSpace=wrap;html=1;backgroundOutline=1;fillColor=#e1d5e7;strokeColor=#9673a6;" parent="1" vertex="1">
          <mxGeometry x="720" y="120" width="120" height="60" as="geometry" />
        </mxCell>
        <mxCell id="h5AYdAlQy4P1A5t7XYnz-6" value="Model core" style="shape=process;whiteSpace=wrap;html=1;backgroundOutline=1;fillColor=#dae8fc;strokeColor=#6c8ebf;" parent="1" vertex="1">
          <mxGeometry x="860" y="120" width="120" height="60" as="geometry" />
        </mxCell>
        <mxCell id="h5AYdAlQy4P1A5t7XYnz-7" value="" style="edgeStyle=orthogonalEdgeStyle;rounded=0;orthogonalLoop=1;jettySize=auto;html=1;entryX=0.5;entryY=0;entryDx=0;entryDy=0;" parent="1" edge="1">
          <mxGeometry relative="1" as="geometry">
            <mxPoint x="840" y="100" as="sourcePoint" />
            <mxPoint x="780" y="120" as="targetPoint" />
            <Array as="points">
              <mxPoint x="780" y="100" />
            </Array>
          </mxGeometry>
        </mxCell>
        <mxCell id="h5AYdAlQy4P1A5t7XYnz-8" value="" style="edgeStyle=orthogonalEdgeStyle;rounded=0;orthogonalLoop=1;jettySize=auto;html=1;entryX=0.5;entryY=0;entryDx=0;entryDy=0;exitX=0.5;exitY=1;exitDx=0;exitDy=0;" parent="1" source="h5AYdAlQy4P1A5t7XYnz-3" edge="1">
          <mxGeometry relative="1" as="geometry">
            <mxPoint x="840" y="100" as="sourcePoint" />
            <mxPoint x="920" y="120" as="targetPoint" />
            <Array as="points">
              <mxPoint x="840" y="100" />
              <mxPoint x="920" y="100" />
            </Array>
          </mxGeometry>
        </mxCell>
        <mxCell id="h5AYdAlQy4P1A5t7XYnz-9" value="Urban drainage coupling" style="rounded=1;whiteSpace=wrap;html=1;" parent="1" vertex="1">
          <mxGeometry x="860" y="210" width="120" height="60" as="geometry" />
        </mxCell>
        <mxCell id="h5AYdAlQy4P1A5t7XYnz-10" value="Weirs in subgrid" style="rounded=1;whiteSpace=wrap;html=1;" parent="1" vertex="1">
          <mxGeometry x="860" y="290" width="120" height="60" as="geometry" />
        </mxCell>
        <mxCell id="h5AYdAlQy4P1A5t7XYnz-11" value="Wave overtopping formula" style="rounded=1;whiteSpace=wrap;html=1;" parent="1" vertex="1">
          <mxGeometry x="860" y="370" width="120" height="60" as="geometry" />
        </mxCell>
        <mxCell id="h5AYdAlQy4P1A5t7XYnz-12" value="Advection-Diffusion Solver" style="rounded=1;whiteSpace=wrap;html=1;" parent="1" vertex="1">
          <mxGeometry x="860" y="450" width="120" height="60" as="geometry" />
        </mxCell>
        <mxCell id="h5AYdAlQy4P1A5t7XYnz-13" value="SnapWave coupling and wave maker in HydroMT-SFINCS" style="rounded=1;whiteSpace=wrap;html=1;" parent="1" vertex="1">
          <mxGeometry x="120" y="290" width="120" height="60" as="geometry" />
        </mxCell>
        <mxCell id="SZPUeSnMp4nOuoSLT5t_-1" value="Green&amp;amp;Ampt and Horton infiltration in HydroMT-SFINCS" style="rounded=1;whiteSpace=wrap;html=1;" parent="1" vertex="1">
          <mxGeometry x="720" y="210" width="120" height="60" as="geometry" />
        </mxCell>
        <mxCell id="wkY9MgDrXydboscdkWBP-3" value="User defined percentage_done in logfile" style="rounded=1;whiteSpace=wrap;html=1;fillColor=#f5f5f5;fontColor=#333333;strokeColor=#666666;" parent="1" vertex="1">
          <mxGeometry x="-40" y="450" width="120" height="60" as="geometry" />
        </mxCell>
        <mxCell id="wkY9MgDrXydboscdkWBP-4" value="Replacement of stopdepth criteria by uvmax, uvlim, advlim, hmin_cfl &amp;amp; slopelim" style="rounded=1;whiteSpace=wrap;html=1;fillColor=#f5f5f5;fontColor=#333333;strokeColor=#666666;" parent="1" vertex="1">
          <mxGeometry x="-40" y="290" width="120" height="60" as="geometry" />
        </mxCell>
        <mxCell id="wkY9MgDrXydboscdkWBP-6" value="Automatic sfincs.log output file" style="rounded=1;whiteSpace=wrap;html=1;fillColor=#f5f5f5;fontColor=#333333;strokeColor=#666666;" parent="1" vertex="1">
          <mxGeometry x="-40" y="370" width="120" height="60" as="geometry" />
        </mxCell>
        <mxCell id="zDsbnmpsBj24U_u8P6oN-1" value="Green infra storage volume" style="rounded=1;whiteSpace=wrap;html=1;" vertex="1" parent="1">
          <mxGeometry x="120" y="450" width="120" height="60" as="geometry" />
        </mxCell>
        <mxCell id="zDsbnmpsBj24U_u8P6oN-2" value="GPU Docker" style="rounded=1;whiteSpace=wrap;html=1;" vertex="1" parent="1">
          <mxGeometry x="560" y="210" width="120" height="60" as="geometry" />
        </mxCell>
        <mxCell id="zDsbnmpsBj24U_u8P6oN-3" value="HydroMT-SFINCS&lt;br&gt;upgrade to HydroMT core V1 version" style="rounded=1;whiteSpace=wrap;html=1;" vertex="1" parent="1">
          <mxGeometry x="420" y="210" width="120" height="60" as="geometry" />
        </mxCell>
      </root>
    </mxGraphModel>
  </diagram>
  <diagram name="2024.01" id="1tp44mnsFU5H1JTcyeWq">
    <mxGraphModel dx="2278" dy="1941" grid="1" gridSize="10" guides="1" tooltips="1" connect="1" arrows="1" fold="1" page="1" pageScale="1" pageWidth="850" pageHeight="1100" math="0" shadow="0">
      <root>
        <mxCell id="aCzvvjgC62mnVWBIICs2-0" />
        <mxCell id="aCzvvjgC62mnVWBIICs2-1" parent="aCzvvjgC62mnVWBIICs2-0" />
        <mxCell id="aCzvvjgC62mnVWBIICs2-2" value="Model building/analyzing" style="shape=process;whiteSpace=wrap;html=1;backgroundOutline=1;fillColor=#e1d5e7;strokeColor=#9673a6;" vertex="1" parent="aCzvvjgC62mnVWBIICs2-1">
          <mxGeometry x="-180" y="120" width="120" height="60" as="geometry" />
        </mxCell>
        <mxCell id="aCzvvjgC62mnVWBIICs2-3" value="Model core" style="shape=process;whiteSpace=wrap;html=1;backgroundOutline=1;fillColor=#dae8fc;strokeColor=#6c8ebf;" vertex="1" parent="aCzvvjgC62mnVWBIICs2-1">
          <mxGeometry x="-40" y="120" width="120" height="60" as="geometry" />
        </mxCell>
        <mxCell id="aCzvvjgC62mnVWBIICs2-4" value="DDB Python" style="rounded=1;whiteSpace=wrap;html=1;" vertex="1" parent="aCzvvjgC62mnVWBIICs2-1">
          <mxGeometry x="120" y="370" width="120" height="60" as="geometry" />
        </mxCell>
        <mxCell id="aCzvvjgC62mnVWBIICs2-5" value="Beta functionality" style="shape=process;whiteSpace=wrap;html=1;backgroundOutline=1;fillColor=#ffe6cc;strokeColor=#d79b00;" vertex="1" parent="aCzvvjgC62mnVWBIICs2-1">
          <mxGeometry x="180" y="20" width="120" height="60" as="geometry" />
        </mxCell>
        <mxCell id="aCzvvjgC62mnVWBIICs2-6" value="Quadtree mesh" style="rounded=1;whiteSpace=wrap;html=1;" vertex="1" parent="aCzvvjgC62mnVWBIICs2-1">
          <mxGeometry x="260" y="370" width="120" height="60" as="geometry" />
        </mxCell>
        <mxCell id="aCzvvjgC62mnVWBIICs2-7" value="BMI" style="rounded=1;whiteSpace=wrap;html=1;" vertex="1" parent="aCzvvjgC62mnVWBIICs2-1">
          <mxGeometry x="560" y="290" width="120" height="60" as="geometry" />
        </mxCell>
        <mxCell id="aCzvvjgC62mnVWBIICs2-8" value="Green infra storage volume" style="rounded=1;whiteSpace=wrap;html=1;" vertex="1" parent="aCzvvjgC62mnVWBIICs2-1">
          <mxGeometry x="560" y="210" width="120" height="60" as="geometry" />
        </mxCell>
        <mxCell id="aCzvvjgC62mnVWBIICs2-9" value="Wave makers" style="rounded=1;whiteSpace=wrap;html=1;" vertex="1" parent="aCzvvjgC62mnVWBIICs2-1">
          <mxGeometry x="260" y="290" width="120" height="60" as="geometry" />
        </mxCell>
        <mxCell id="aCzvvjgC62mnVWBIICs2-10" value="Coupling to SnapWave" style="rounded=1;whiteSpace=wrap;html=1;" vertex="1" parent="aCzvvjgC62mnVWBIICs2-1">
          <mxGeometry x="260" y="210" width="120" height="60" as="geometry" />
        </mxCell>
        <mxCell id="aCzvvjgC62mnVWBIICs2-11" value="GPU Docker" style="rounded=1;whiteSpace=wrap;html=1;" vertex="1" parent="aCzvvjgC62mnVWBIICs2-1">
          <mxGeometry x="560" y="370" width="120" height="60" as="geometry" />
        </mxCell>
        <mxCell id="aCzvvjgC62mnVWBIICs2-12" value="Alpha functionality" style="shape=process;whiteSpace=wrap;html=1;backgroundOutline=1;fillColor=#fff2cc;strokeColor=#d6b656;" vertex="1" parent="aCzvvjgC62mnVWBIICs2-1">
          <mxGeometry x="480" y="20" width="120" height="60" as="geometry" />
        </mxCell>
        <mxCell id="aCzvvjgC62mnVWBIICs2-13" value="" style="edgeStyle=orthogonalEdgeStyle;rounded=0;orthogonalLoop=1;jettySize=auto;html=1;entryX=0.5;entryY=0;entryDx=0;entryDy=0;" edge="1" parent="aCzvvjgC62mnVWBIICs2-1" source="aCzvvjgC62mnVWBIICs2-14" target="aCzvvjgC62mnVWBIICs2-2">
          <mxGeometry relative="1" as="geometry">
            <Array as="points">
              <mxPoint x="-60" y="100" />
              <mxPoint x="-120" y="100" />
            </Array>
          </mxGeometry>
        </mxCell>
        <mxCell id="aCzvvjgC62mnVWBIICs2-14" value="New functionality" style="shape=process;whiteSpace=wrap;html=1;backgroundOutline=1;fillColor=#d5e8d4;strokeColor=#82b366;" vertex="1" parent="aCzvvjgC62mnVWBIICs2-1">
          <mxGeometry x="-120" y="20" width="120" height="60" as="geometry" />
        </mxCell>
        <mxCell id="aCzvvjgC62mnVWBIICs2-15" value="HydroMT-SFINCS&lt;br&gt;Subgrid Netcdf file" style="rounded=1;whiteSpace=wrap;html=1;fillColor=#f5f5f5;fontColor=#333333;strokeColor=#666666;" vertex="1" parent="aCzvvjgC62mnVWBIICs2-1">
          <mxGeometry x="-180" y="210" width="120" height="60" as="geometry" />
        </mxCell>
        <mxCell id="aCzvvjgC62mnVWBIICs2-16" value="Model building/analyzing" style="shape=process;whiteSpace=wrap;html=1;backgroundOutline=1;fillColor=#e1d5e7;strokeColor=#9673a6;" vertex="1" parent="aCzvvjgC62mnVWBIICs2-1">
          <mxGeometry x="120" y="120" width="120" height="60" as="geometry" />
        </mxCell>
        <mxCell id="aCzvvjgC62mnVWBIICs2-17" value="Model core" style="shape=process;whiteSpace=wrap;html=1;backgroundOutline=1;fillColor=#dae8fc;strokeColor=#6c8ebf;" vertex="1" parent="aCzvvjgC62mnVWBIICs2-1">
          <mxGeometry x="260" y="120" width="120" height="60" as="geometry" />
        </mxCell>
        <mxCell id="aCzvvjgC62mnVWBIICs2-18" value="Model building/analyzing" style="shape=process;whiteSpace=wrap;html=1;backgroundOutline=1;fillColor=#e1d5e7;strokeColor=#9673a6;" vertex="1" parent="aCzvvjgC62mnVWBIICs2-1">
          <mxGeometry x="420" y="120" width="120" height="60" as="geometry" />
        </mxCell>
        <mxCell id="aCzvvjgC62mnVWBIICs2-19" value="Model core" style="shape=process;whiteSpace=wrap;html=1;backgroundOutline=1;fillColor=#dae8fc;strokeColor=#6c8ebf;" vertex="1" parent="aCzvvjgC62mnVWBIICs2-1">
          <mxGeometry x="560" y="120" width="120" height="60" as="geometry" />
        </mxCell>
        <mxCell id="aCzvvjgC62mnVWBIICs2-20" value="" style="edgeStyle=orthogonalEdgeStyle;rounded=0;orthogonalLoop=1;jettySize=auto;html=1;entryX=0.5;entryY=0;entryDx=0;entryDy=0;exitX=0.5;exitY=1;exitDx=0;exitDy=0;" edge="1" parent="aCzvvjgC62mnVWBIICs2-1" source="aCzvvjgC62mnVWBIICs2-14" target="aCzvvjgC62mnVWBIICs2-3">
          <mxGeometry relative="1" as="geometry">
            <mxPoint x="-50" y="110" as="sourcePoint" />
            <mxPoint x="-110" y="130" as="targetPoint" />
            <Array as="points">
              <mxPoint x="-60" y="100" />
              <mxPoint x="20" y="100" />
            </Array>
          </mxGeometry>
        </mxCell>
        <mxCell id="aCzvvjgC62mnVWBIICs2-21" value="" style="edgeStyle=orthogonalEdgeStyle;rounded=0;orthogonalLoop=1;jettySize=auto;html=1;entryX=0.5;entryY=0;entryDx=0;entryDy=0;" edge="1" parent="aCzvvjgC62mnVWBIICs2-1">
          <mxGeometry relative="1" as="geometry">
            <mxPoint x="240" y="100" as="sourcePoint" />
            <mxPoint x="180" y="120" as="targetPoint" />
            <Array as="points">
              <mxPoint x="180" y="100" />
            </Array>
          </mxGeometry>
        </mxCell>
        <mxCell id="aCzvvjgC62mnVWBIICs2-22" value="" style="edgeStyle=orthogonalEdgeStyle;rounded=0;orthogonalLoop=1;jettySize=auto;html=1;entryX=0.5;entryY=0;entryDx=0;entryDy=0;exitX=0.5;exitY=1;exitDx=0;exitDy=0;" edge="1" parent="aCzvvjgC62mnVWBIICs2-1" source="aCzvvjgC62mnVWBIICs2-5">
          <mxGeometry relative="1" as="geometry">
            <mxPoint x="240" y="100" as="sourcePoint" />
            <mxPoint x="320" y="120" as="targetPoint" />
            <Array as="points">
              <mxPoint x="240" y="100" />
              <mxPoint x="320" y="100" />
            </Array>
          </mxGeometry>
        </mxCell>
        <mxCell id="aCzvvjgC62mnVWBIICs2-23" value="" style="edgeStyle=orthogonalEdgeStyle;rounded=0;orthogonalLoop=1;jettySize=auto;html=1;entryX=0.5;entryY=0;entryDx=0;entryDy=0;" edge="1" parent="aCzvvjgC62mnVWBIICs2-1">
          <mxGeometry relative="1" as="geometry">
            <mxPoint x="540" y="100" as="sourcePoint" />
            <mxPoint x="480" y="120" as="targetPoint" />
            <Array as="points">
              <mxPoint x="480" y="100" />
            </Array>
          </mxGeometry>
        </mxCell>
        <mxCell id="aCzvvjgC62mnVWBIICs2-24" value="" style="edgeStyle=orthogonalEdgeStyle;rounded=0;orthogonalLoop=1;jettySize=auto;html=1;entryX=0.5;entryY=0;entryDx=0;entryDy=0;exitX=0.5;exitY=1;exitDx=0;exitDy=0;" edge="1" parent="aCzvvjgC62mnVWBIICs2-1" source="aCzvvjgC62mnVWBIICs2-12">
          <mxGeometry relative="1" as="geometry">
            <mxPoint x="540" y="100" as="sourcePoint" />
            <mxPoint x="620" y="120" as="targetPoint" />
            <Array as="points">
              <mxPoint x="540" y="100" />
              <mxPoint x="620" y="100" />
            </Array>
          </mxGeometry>
        </mxCell>
        <mxCell id="aCzvvjgC62mnVWBIICs2-25" value="New advection scheme" style="rounded=1;whiteSpace=wrap;html=1;fillColor=#f5f5f5;fontColor=#333333;strokeColor=#666666;" vertex="1" parent="aCzvvjgC62mnVWBIICs2-1">
          <mxGeometry x="-40" y="210" width="120" height="60" as="geometry" />
        </mxCell>
        <mxCell id="aCzvvjgC62mnVWBIICs2-26" value="Development status SFINCS &amp;amp; HydroMT-SFINCS 2024.01" style="shape=process;whiteSpace=wrap;html=1;backgroundOutline=1;fillColor=#76608a;strokeColor=#432D57;rounded=1;shadow=1;fontColor=#ffffff;" vertex="1" parent="aCzvvjgC62mnVWBIICs2-1">
          <mxGeometry x="-120" y="-60" width="1020" height="60" as="geometry" />
        </mxCell>
        <mxCell id="aCzvvjgC62mnVWBIICs2-27" value="Pre-alpha functionality" style="shape=process;whiteSpace=wrap;html=1;backgroundOutline=1;fillColor=#f9f7ed;strokeColor=#36393d;" vertex="1" parent="aCzvvjgC62mnVWBIICs2-1">
          <mxGeometry x="780" y="20" width="120" height="60" as="geometry" />
        </mxCell>
        <mxCell id="aCzvvjgC62mnVWBIICs2-28" value="HydroMT-SFINCS&lt;br&gt;Quadtree model" style="rounded=1;whiteSpace=wrap;html=1;" vertex="1" parent="aCzvvjgC62mnVWBIICs2-1">
          <mxGeometry x="120" y="210" width="120" height="60" as="geometry" />
        </mxCell>
        <mxCell id="aCzvvjgC62mnVWBIICs2-29" value="Model building/analyzing" style="shape=process;whiteSpace=wrap;html=1;backgroundOutline=1;fillColor=#e1d5e7;strokeColor=#9673a6;" vertex="1" parent="aCzvvjgC62mnVWBIICs2-1">
          <mxGeometry x="720" y="120" width="120" height="60" as="geometry" />
        </mxCell>
        <mxCell id="aCzvvjgC62mnVWBIICs2-30" value="Model core" style="shape=process;whiteSpace=wrap;html=1;backgroundOutline=1;fillColor=#dae8fc;strokeColor=#6c8ebf;" vertex="1" parent="aCzvvjgC62mnVWBIICs2-1">
          <mxGeometry x="860" y="120" width="120" height="60" as="geometry" />
        </mxCell>
        <mxCell id="aCzvvjgC62mnVWBIICs2-31" value="" style="edgeStyle=orthogonalEdgeStyle;rounded=0;orthogonalLoop=1;jettySize=auto;html=1;entryX=0.5;entryY=0;entryDx=0;entryDy=0;" edge="1" parent="aCzvvjgC62mnVWBIICs2-1">
          <mxGeometry relative="1" as="geometry">
            <mxPoint x="840" y="100" as="sourcePoint" />
            <mxPoint x="780" y="120" as="targetPoint" />
            <Array as="points">
              <mxPoint x="780" y="100" />
            </Array>
          </mxGeometry>
        </mxCell>
        <mxCell id="aCzvvjgC62mnVWBIICs2-32" value="" style="edgeStyle=orthogonalEdgeStyle;rounded=0;orthogonalLoop=1;jettySize=auto;html=1;entryX=0.5;entryY=0;entryDx=0;entryDy=0;exitX=0.5;exitY=1;exitDx=0;exitDy=0;" edge="1" parent="aCzvvjgC62mnVWBIICs2-1" source="aCzvvjgC62mnVWBIICs2-27">
          <mxGeometry relative="1" as="geometry">
            <mxPoint x="840" y="100" as="sourcePoint" />
            <mxPoint x="920" y="120" as="targetPoint" />
            <Array as="points">
              <mxPoint x="840" y="100" />
              <mxPoint x="920" y="100" />
            </Array>
          </mxGeometry>
        </mxCell>
        <mxCell id="aCzvvjgC62mnVWBIICs2-33" value="Urban drainage coupling" style="rounded=1;whiteSpace=wrap;html=1;" vertex="1" parent="aCzvvjgC62mnVWBIICs2-1">
          <mxGeometry x="860" y="210" width="120" height="60" as="geometry" />
        </mxCell>
        <mxCell id="aCzvvjgC62mnVWBIICs2-34" value="Weirs in subgrid" style="rounded=1;whiteSpace=wrap;html=1;" vertex="1" parent="aCzvvjgC62mnVWBIICs2-1">
          <mxGeometry x="860" y="290" width="120" height="60" as="geometry" />
        </mxCell>
        <mxCell id="aCzvvjgC62mnVWBIICs2-35" value="Wave overtopping formula" style="rounded=1;whiteSpace=wrap;html=1;" vertex="1" parent="aCzvvjgC62mnVWBIICs2-1">
          <mxGeometry x="860" y="370" width="120" height="60" as="geometry" />
        </mxCell>
        <mxCell id="aCzvvjgC62mnVWBIICs2-36" value="Advection-Diffusion Solver" style="rounded=1;whiteSpace=wrap;html=1;" vertex="1" parent="aCzvvjgC62mnVWBIICs2-1">
          <mxGeometry x="860" y="450" width="120" height="60" as="geometry" />
        </mxCell>
        <mxCell id="aCzvvjgC62mnVWBIICs2-37" value="SnapWave coupling and wave maker in HydroMT-SFINCS" style="rounded=1;whiteSpace=wrap;html=1;" vertex="1" parent="aCzvvjgC62mnVWBIICs2-1">
          <mxGeometry x="120" y="290" width="120" height="60" as="geometry" />
        </mxCell>
        <mxCell id="aCzvvjgC62mnVWBIICs2-38" value="Green&amp;amp;Ampt and Horton infiltration in HydroMT-SFINCS" style="rounded=1;whiteSpace=wrap;html=1;" vertex="1" parent="aCzvvjgC62mnVWBIICs2-1">
          <mxGeometry x="720" y="210" width="120" height="60" as="geometry" />
        </mxCell>
        <mxCell id="aCzvvjgC62mnVWBIICs2-39" value="Upgraded Netcdf version" style="rounded=1;whiteSpace=wrap;html=1;fillColor=#f5f5f5;fontColor=#333333;strokeColor=#666666;" vertex="1" parent="aCzvvjgC62mnVWBIICs2-1">
          <mxGeometry x="-40" y="530" width="120" height="60" as="geometry" />
        </mxCell>
        <mxCell id="aCzvvjgC62mnVWBIICs2-40" value="New 2D friction term" style="rounded=1;whiteSpace=wrap;html=1;fillColor=#f5f5f5;fontColor=#333333;strokeColor=#666666;" vertex="1" parent="aCzvvjgC62mnVWBIICs2-1">
          <mxGeometry x="-40" y="290" width="120" height="60" as="geometry" />
        </mxCell>
        <mxCell id="aCzvvjgC62mnVWBIICs2-41" value="New subgrid method with wet fraction through netcdf input" style="rounded=1;whiteSpace=wrap;html=1;fillColor=#f5f5f5;fontColor=#333333;strokeColor=#666666;" vertex="1" parent="aCzvvjgC62mnVWBIICs2-1">
          <mxGeometry x="-40" y="370" width="120" height="60" as="geometry" />
        </mxCell>
        <mxCell id="aCzvvjgC62mnVWBIICs2-42" value="New defaults for alpha, theta, advection, viscosity" style="rounded=1;whiteSpace=wrap;html=1;fillColor=#f5f5f5;fontColor=#333333;strokeColor=#666666;" vertex="1" parent="aCzvvjgC62mnVWBIICs2-1">
          <mxGeometry x="-40" y="450" width="120" height="60" as="geometry" />
        </mxCell>
        <mxCell id="aCzvvjgC62mnVWBIICs2-43" value="Model &#39;status&#39; output in netcdf output" style="rounded=1;whiteSpace=wrap;html=1;fillColor=#f5f5f5;fontColor=#333333;strokeColor=#666666;" vertex="1" parent="aCzvvjgC62mnVWBIICs2-1">
          <mxGeometry x="-40" y="610" width="120" height="60" as="geometry" />
        </mxCell>
        <mxCell id="aCzvvjgC62mnVWBIICs2-44" value="IG wave estimation in SnapWave" style="rounded=1;whiteSpace=wrap;html=1;fillColor=#f5f5f5;fontColor=#333333;strokeColor=#666666;" vertex="1" parent="aCzvvjgC62mnVWBIICs2-1">
          <mxGeometry x="-40" y="690" width="120" height="60" as="geometry" />
        </mxCell>
      </root>
    </mxGraphModel>
  </diagram>
</mxfile>
